<svg width="181" height="140" viewBox="0 0 181 140" fill="none" xmlns="http://www.w3.org/2000/svg">
<g clip-path="url(#clip0_150_4890)">
<path d="M107.293 19.6526C107.831 20.6425 108.137 21.772 108.137 22.9745C108.137 26.828 105.014 29.9506 101.159 29.9506C97.305 29.9506 94.1816 26.828 94.1816 22.9745C94.1816 20.4365 95.5373 18.2175 97.5575 16.995L98.2354 16.6362L87.5361 0.318848L77.8868 17.9119L78.1859 18.058C80.339 19.2473 81.801 21.5394 81.801 24.1704C81.801 28.0239 78.6777 31.1465 74.8233 31.1465C70.9689 31.1465 67.8455 28.0239 67.8455 24.1704C67.8455 22.9346 68.1711 21.772 68.736 20.7621L68.9088 20.4764L49.6235 10.7896L59.9839 49.4437C59.9839 49.4437 77.6077 33.319 116.697 45.278L125.455 7.90617L107.094 19.3137L107.293 19.6526Z" fill="white" stroke="#D4D4D4" stroke-width="0.332275" stroke-miterlimit="10"/>
<path d="M145.04 74.6972C142.136 80.4575 134.367 97.6386 135.789 114.468C135.902 115.77 136.394 117.005 137.198 118.029C139.231 120.626 143.558 125.383 147.977 125.423C148.356 125.43 148.588 124.998 148.389 124.679C147.246 122.879 144.967 116.713 147.359 97.5323C147.372 97.406 147.479 97.313 147.605 97.3197C149.525 97.3994 163.88 97.6519 175.017 88.769C175.017 88.769 185.983 79.5871 176.44 68.5649C172.672 64.4258 164.657 61.4892 155.181 60.3398C147.572 59.4163 139.843 59.8614 132.466 61.921C113.666 67.1697 117.315 76.9362 121.481 81.5803C126.392 87.0615 132.088 86.9419 136.912 87.6395C137.391 87.706 137.464 86.902 137.032 86.6828C134.526 85.4205 128.718 82.2447 128.133 79.6602C128.133 79.6602 123.05 69.123 151.878 68.1995C180.713 67.276 176.938 78.3049 171.23 82.1184C169.781 83.3874 163.767 88.377 149.844 88.7291C149.545 88.7358 149.306 88.4634 149.366 88.1644L151.286 78.2517C151.552 76.9362 151.519 75.727 150.496 74.8567C149.991 74.4315 149.392 73.9863 148.721 73.6076C147.392 72.8569 145.717 73.3485 145.04 74.6972Z" fill="white" stroke="#D4D4D4" stroke-width="0.332275" stroke-miterlimit="10"/>
<path d="M117.235 63.1236C117.627 63.5089 118.285 63.303 118.378 62.7582C118.836 60.0408 119.401 53.7889 115.62 50.8722C107.725 46.3411 79.5283 42.388 66.2971 51.4636C58.4621 57.0178 57.5848 68.3457 76.4182 73.6741C89.5032 77.3747 102.17 76.6638 112.105 82.5835C122.339 87.4668 120.039 105.425 101.312 109.764C83.2298 115.956 67.4933 108.694 63.6455 101.718C62.0373 98.8013 62.4361 93.4264 75.5742 89.2606C86.6988 85.7327 98.9265 92.0644 102.409 94.0841C102.708 94.2568 103.047 93.9313 102.881 93.6257C101.731 91.5262 98.4082 86.8223 90.8522 84.5634C68.4968 78.657 57.7244 87.9784 55.744 91.4C53.7637 94.8216 54.6808 100.927 59.5253 106.987C68.4968 118.215 88.5728 121.51 103.811 117.524C119.049 113.537 127.595 103.857 122.638 89.4002C119.381 79.9127 109.327 73.6741 97.4778 69.6147C85.6222 65.5552 72.2714 66.5186 72.0587 61.7151C71.8461 57.0444 106.15 52.3738 117.235 63.1236Z" fill="white" stroke="#D4D4D4" stroke-width="0.332275" stroke-miterlimit="10"/>
<path d="M29.2351 69.8671C28.0589 69.3556 26.6766 69.8472 26.1051 71.0032C23.5865 76.1057 17.8182 90.4765 21.214 109.697C21.214 109.697 22.4302 118.175 34.8307 122.36C35.1962 122.48 35.5351 122.121 35.3756 121.769C34.2193 119.271 31.4547 110.521 32.5645 95.3863C32.5712 95.3332 32.6376 95.3132 32.6642 95.3531C62.8946 132.027 66.8221 136.97 88.42 139.575C90.407 139.814 92.4139 139.887 94.4142 139.767C103.16 139.229 112.782 136.738 119.209 133.961C122.923 132.36 126.22 129.881 128.605 126.619C135.51 117.192 129.509 109.285 129.509 109.285C129.064 108.249 124.452 124.36 103.093 128.559C69.673 135.648 56.1561 111.797 38.1401 94.0708C37.7945 93.732 37.9341 93.1473 38.3993 93.0011C45.8954 90.6691 56.176 87.706 61.0538 81.6467C64.2968 77.6139 64.3566 71.9267 61.5057 67.6016C51.6305 52.5997 25.0219 55.6824 20.2903 56.6657C15.14 57.7354 -2.63667 62.2865 1.21107 73.6807C4.77971 84.2445 19.1672 83.9588 20.7621 83.7396C22.3571 83.5203 10.8936 80.0124 10.4616 74.6773C10.3088 72.7639 11.4584 70.6179 15.3726 68.4121C19.2868 66.2064 23.633 65.4955 25.7662 64.9972C27.8994 64.4989 35.7344 63.7548 39.2964 63.8611C51.3979 64.2198 57.0333 65.3161 58.2361 70.5515C59.2329 74.8966 53.1124 80.0921 42.4265 82.6234C39.529 83.3077 33.362 83.992 31.6342 84.1714C31.4082 84.198 31.2222 83.992 31.2687 83.7661L33.2557 74.1524C33.5348 72.8037 32.8304 71.4417 31.5677 70.8903L29.2351 69.8671Z" fill="white" stroke="#D4D4D4" stroke-width="0.332275" stroke-miterlimit="10"/>
</g>
<defs>
<clipPath id="clip0_150_4890">
<rect width="180" height="140" fill="white" transform="translate(0.5)"/>
</clipPath>
</defs>
</svg>
