<svg width="132" height="201" viewBox="0 0 132 201" fill="none" xmlns="http://www.w3.org/2000/svg">
<g opacity="0.05">
<path d="M137.019 0H95.0741C87.3524 0 81.0927 6.53138 81.0927 14.5882V58.3529C81.0927 66.4098 87.3524 72.9412 95.0741 72.9412H137.019C144.74 72.9412 151 66.4098 151 58.3529V14.5882C151 6.53138 144.74 0 137.019 0Z" fill="#171717"/>
<path d="M55.9259 28.4471H13.9815C6.25972 28.4471 0 34.9784 0 43.0353V86.8C0 94.8569 6.25972 101.388 13.9815 101.388H55.9259C63.6477 101.388 69.9074 94.8569 69.9074 86.8V43.0353C69.9074 34.9784 63.6477 28.4471 55.9259 28.4471Z" fill="#171717"/>
<path d="M137.019 84.6118H95.0741C87.3524 84.6118 81.0927 91.1431 81.0927 99.2V142.965C81.0927 151.022 87.3524 157.553 95.0741 157.553H137.019C144.74 157.553 151 151.022 151 142.965V99.2C151 91.1431 144.74 84.6118 137.019 84.6118Z" fill="#171717"/>
<path d="M55.9259 113.059H13.9815C6.25972 113.059 0 119.59 0 127.647V171.412C0 179.469 6.25972 186 13.9815 186H55.9259C63.6477 186 69.9074 179.469 69.9074 171.412V127.647C69.9074 119.59 63.6477 113.059 55.9259 113.059Z" fill="#171717"/>
</g>
</svg>
